# xmcd
#
# Track frame offsets:
#	150
#	10868
#	23261
#	35202
#	50171
#	63102
#	75001
#	92714
#	105979
#	120055
#	134354
#
# Disc length: 2012 seconds
#
# Revision: 1
# Processed by: cddbd v1.5.2PL0 Copyright (c) Steve Scherf et al.
# Submitted via: audiograbber 1.83.01
#
DISCID=7207da0b
DTITLE=Jake and the Spitfires - Birthday Presence
DYEAR=2001
DGENRE=Country
TTITLE0=Gotta Love You Tonight
TTITLE1=I Sure Get Blue
TTITLE2=No Help From Below
TTITLE3=There's A Strong Wind
TTITLE4=Hear That Blowin'
TTITLE5=Like A Thief Need Stealin'
TTITLE6=A Stranger's Hand
TTITLE7=Lookin' For My Runaway Girl
TTITLE8=Round In Circles
TTITLE9=I'll Be There (If You Ever Want Me)
TTITLE10=Trick Up My Sleeve
EXTD=
EXTT0=
EXTT1=
EXTT2=
EXTT3=
EXTT4=
EXTT5=
EXTT6=
EXTT7=
EXTT8=
EXTT9=
EXTT10=
PLAYORDER=
